<svg width="32" height="52" viewBox="0 0 32 52" fill="none" xmlns="http://www.w3.org/2000/svg">
<path d="M15.9942 52.0001C15.4886 51.1325 15.008 50.3176 14.5367 49.4964C11.0268 43.3758 7.67313 37.1702 4.71194 30.7539C3.20572 27.4905 1.792 24.1865 0.788265 20.7201C0.332024 19.1436 -0.0548437 17.5507 0.00640509 15.8923C0.200151 10.6945 2.30761 6.46269 6.37066 3.30341C12.3362 -1.33461 20.7441 -1.05853 26.419 3.93869C29.7502 6.87204 31.5864 10.5981 31.9614 15.073C32.137 17.1648 31.6889 19.1493 31.0983 21.118C30.1589 24.2481 28.889 27.2462 27.5396 30.2106C25.1797 35.3932 22.5447 40.4323 19.776 45.3991C18.6073 47.496 17.4004 49.5706 16.2098 51.6548C16.1536 51.7538 16.0892 51.8477 15.9942 51.9994V52.0001ZM25.584 16.2795C25.5928 10.949 21.3179 6.5452 16.1205 6.5306C10.7424 6.51537 6.4044 10.8608 6.40628 16.261C6.40815 21.6067 10.7312 26.0004 15.993 26.0055C21.2641 26.0105 25.5753 21.6391 25.584 16.2801V16.2795Z" fill="#39C66B"/>
</svg>
